<svg width="1280" height="832" viewBox="0 0 1280 832" fill="none" xmlns="http://www.w3.org/2000/svg">
<rect width="1280" height="832" fill="white"/>
<path d="M942.863 406.35C928.328 398.472 892.898 403.067 877 406.35V423.091L954.976 429C956.995 424.733 957.398 414.228 942.863 406.35Z" fill="#757373"/>
<ellipse cx="877" cy="364" rx="67" ry="65" fill="#D9D9D9"/>
<path d="M538.5 394L180 510L690 599L1046.5 442.5C924.5 425 666.2 388.2 643 381C619.8 373.8 600.833 361.333 590 356L538.5 394Z" fill="#DAD3CA"/>
<path d="M961.5 453L814.5 393L496 428.5V475L582 525L961.5 485V453Z" fill="#BEC5C5"/>
<path d="M457.5 424.5L820 394L968 452L583 490.5L457.5 424.5Z" fill="#BFBDBD"/>
<path d="M714.5 404.5C725.167 412.667 731 429.8 669 433C607 436.2 640.167 429.667 664.5 426" stroke="#40591C" stroke-width="6"/>
<path d="M614 428.5V434H629L626.5 451.5L642.5 448.5L656.5 455L672.5 446.5L677.5 430.5L656.5 420.5L642.5 407L629 413L626.5 418L614 428.5Z" fill="#983030"/>
<path d="M655.5 401.5L670.5 396.5L672.5 413.5H685L689.5 430L679.5 440.5L666 437.5L657.5 423.5H647L640 405.5L651 408.5L655.5 401.5Z" fill="#FD8687"/>
<path d="M495 443L582 490.5L962 452.5" stroke="#EAE0E0" stroke-width="4" stroke-linecap="round"/>
<path d="M962 487.5L581.5 528.5L494 475.5" stroke="#E4E4E4" stroke-width="4" stroke-linecap="round"/>
<path d="M542 433L413.5 405.5L409 507.5L468 544L544.5 528L542 433Z" fill="#FEFFF3"/>
<path d="M474 445.5L413.5 406.5L409.5 501L470.5 544L474 445.5Z" fill="#F3F0D6"/>
<mask id="mask0_240_778" style="mask-type:alpha" maskUnits="userSpaceOnUse" x="400" y="427" width="82" height="98">
<path d="M413.046 427.796C410.656 426.414 407.597 427.23 406.215 429.62C404.832 432.011 405.648 435.069 408.039 436.452L413.046 427.796ZM408.039 436.452L476.144 475.853L481.152 467.197L413.046 427.796L408.039 436.452Z" fill="#9D1E1E"/>
<path d="M412.296 449.283C409.906 447.9 406.847 448.717 405.465 451.107C404.082 453.498 404.898 456.556 407.289 457.939L412.296 449.283ZM407.289 457.939L475.394 497.34L480.402 488.684L412.296 449.283L407.289 457.939Z" fill="#9D1E1E"/>
<path d="M407.795 476.143C405.405 474.76 402.346 475.576 400.964 477.967C399.581 480.357 400.397 483.416 402.788 484.798L407.795 476.143ZM402.788 484.798L470.893 524.199L475.901 515.543L407.795 476.143L402.788 484.798Z" fill="#9D1E1E"/>
</mask>
<g mask="url(#mask0_240_778)">
<path d="M474 445.5L413.5 406.5L409.5 501L470.5 544L474 445.5Z" fill="#B02E2E"/>
</g>
<path d="M544 437L473 445.5L469 544L544 528V437Z" fill="#F5FEFF" fill-opacity="0.65"/>
</svg>
